<?xml version="1.0" standalone="no"?>
<!DOCTYPE svg PUBLIC "-//W3C//DTD SVG 20010904//EN"
 "http://www.w3.org/TR/2001/REC-SVG-20010904/DTD/svg10.dtd">
<svg version="1.0" xmlns="http://www.w3.org/2000/svg"
 width="300.000000pt" height="300.000000pt" viewBox="0 0 300.000000 300.000000"
 preserveAspectRatio="xMidYMid meet">
<metadata>
Created by potrace 1.10, written by Peter Selinger 2001-2011
</metadata>
<g transform="translate(0.000000,300.000000) scale(0.100000,-0.100000)"
fill="#000000" stroke="none">
<path d="M1224 2540 c-40 -16 -60 -57 -164 -341 -57 -156 -152 -414 -211 -573
-60 -160 -106 -292 -103 -295 2 -3 42 7 87 21 120 39 158 48 296 72 l124 22
38 109 c113 330 189 539 199 549 7 7 90 11 261 11 218 0 248 2 243 15 -3 8
-33 88 -65 178 -67 187 -82 217 -108 232 -24 12 -566 13 -597 0z m585 -55 c19
-19 121 -281 121 -311 0 -12 -33 -14 -192 -14 -211 0 -260 -8 -285 -46 -9 -14
-45 -107 -80 -207 -124 -351 -143 -401 -156 -414 -7 -7 -49 -20 -94 -27 -82
-15 -279 -62 -294 -71 -19 -12 -17 18 5 77 13 35 73 198 134 363 192 523 233
630 249 647 21 24 46 25 325 24 233 -1 249 -2 267 -21z"/>
<path d="M1634 1896 c-18 -14 -17 -20 49 -219 38 -112 72 -208 75 -214 4 -5
43 -15 87 -22 106 -16 283 -58 369 -87 38 -13 71 -23 72 -21 2 2 -14 48 -35
103 -20 54 -68 183 -106 287 l-68 187 -211 0 c-168 0 -216 -3 -232 -14z m417
-43 c4 -4 24 -53 44 -108 21 -55 52 -141 71 -192 19 -50 37 -106 41 -124 6
-30 5 -32 -18 -25 -64 20 -223 58 -299 71 -57 10 -90 21 -100 33 -25 30 -125
343 -113 350 15 10 364 5 374 -5z"/>
<path d="M1410 1630 c-24 -24 -25 -48 -4 -78 20 -28 62 -29 72 -1 l8 20 18
-20 c35 -39 96 -15 96 37 0 45 -63 80 -89 49 -14 -17 -4 -27 26 -27 20 0 24
-5 21 -22 -4 -30 -37 -34 -65 -8 -12 11 -28 20 -34 20 -7 0 -5 -6 6 -13 13
-10 15 -16 6 -21 -14 -9 -41 11 -41 31 0 24 30 26 60 4 46 -34 54 -24 11 14
-44 40 -63 43 -91 15z"/>
<path d="M1774 1326 c-41 -18 -64 -52 -64 -96 0 -71 66 -113 141 -91 47 14 69
44 69 91 0 45 -23 78 -66 96 -40 17 -41 17 -80 0z m84 -48 c21 -21 15 -75 -10
-92 -30 -21 -44 -20 -68 4 -24 24 -26 57 -3 82 18 20 63 24 81 6z"/>
<path d="M885 1238 c-22 -51 -41 -96 -43 -100 -2 -4 8 -8 22 -8 18 0 29 7 35
23 12 32 76 32 109 0 24 -25 57 -31 49 -9 -3 7 -22 52 -43 100 -33 77 -40 86
-64 86 -23 0 -30 -9 -65 -92z m91 -25 c-2 -3 -15 -3 -29 -1 -25 3 -25 4 -11
38 l15 35 15 -34 c8 -19 12 -36 10 -38z"/>
<path d="M1090 1240 c0 -49 -1 -93 -2 -97 -2 -5 10 -9 25 -11 l29 -4 -4 56
c-1 31 0 56 3 56 4 0 25 -24 46 -53 25 -32 49 -53 62 -54 20 -2 21 2 21 98 0
98 0 99 -25 99 -22 0 -24 -4 -27 -56 l-3 -56 -40 56 c-28 39 -47 56 -62 56
-22 0 -23 -3 -23 -90z"/>
<path d="M1330 1310 c-39 -39 -23 -75 41 -94 51 -15 60 -41 14 -40 -16 0 -37
4 -46 8 -11 5 -19 1 -23 -10 -9 -23 3 -34 47 -41 48 -7 96 13 103 43 11 44 -8
63 -78 78 -31 7 -38 35 -10 37 25 2 25 2 50 -6 26 -8 44 21 21 36 -27 17 -98
10 -119 -11z"/>
<path d="M1529 1301 c-53 -54 -35 -138 36 -161 61 -20 134 10 106 44 -10 12
-16 12 -40 -2 -26 -15 -30 -15 -55 1 -28 19 -34 53 -16 88 12 22 59 26 78 7
10 -9 16 -8 30 6 16 16 16 18 -2 32 -11 8 -40 14 -64 14 -35 0 -49 -6 -73 -29z"/>
<path d="M1960 1237 c0 -52 2 -96 4 -98 3 -2 37 -2 76 1 63 5 75 9 96 33 25
30 31 75 14 108 -17 31 -64 49 -130 49 l-60 0 0 -93z m134 37 c9 -8 16 -26 16
-39 0 -33 -26 -55 -66 -55 l-34 0 0 55 0 55 34 0 c19 0 42 -7 50 -16z"/>
<path d="M1164 1015 c-4 -9 -4 -51 -2 -93 4 -75 26 -142 61 -187 15 -20 16
-20 49 12 40 38 79 49 116 34 40 -17 53 -44 61 -130 5 -42 15 -90 24 -108 15
-28 83 -93 98 -93 3 0 2 17 -4 38 -17 64 17 121 113 188 135 94 186 172 178
270 -3 30 -7 56 -10 59 -3 3 -25 -6 -49 -19 -73 -40 -161 -58 -290 -58 -99 1
-128 5 -195 27 -43 15 -94 38 -112 51 -28 22 -33 23 -38 9z m151 -102 c121
-41 285 -38 434 8 35 10 66 17 68 15 10 -10 -12 -80 -36 -116 -14 -21 -63 -66
-108 -99 -72 -53 -132 -116 -146 -154 -11 -29 -29 16 -38 88 -16 146 -88 202
-199 154 -60 -26 -63 -24 -81 58 -14 60 -7 89 19 77 9 -4 48 -18 87 -31z"/>
</g>
</svg>
